<svg xmlns="http://www.w3.org/2000/svg" viewBox="0 0 275 245"><defs><style>.a{fill:#0a56bb;}.b{fill:#d7d7d7;}.c{fill:#f3f3f3;}.d{fill:#e8e8e8;}.e,.j,.n{fill:#fff;}.e{stroke:#ccc;stroke-width:0.5px;}.e,.f,.i,.n{stroke-miterlimit:10;}.f,.k{fill:#f6f6f6;}.f,.n{stroke:#fff;}.g{fill:#224099;}.h{fill:#473305;}.i{fill:#ededed;stroke:#d0d2d3;}.l{fill:#1d1d1b;}.m{fill:#faa534;}.n{stroke-width:0.75px;}.o{fill:#fe7134;}.p{fill:#cc4212;}.q{fill:#e05322;}.r{fill:#99280a;}</style></defs><title>reset-password-05022019</title><ellipse class="a" cx="138.83" cy="133.86" rx="96.53" ry="96.46"/><path class="a" d="M61,153.48a5.89,5.89,0,1,0,5.89,5.89A5.89,5.89,0,0,0,61,153.48Zm0,8.27a2.38,2.38,0,1,1,2.38-2.38A2.38,2.38,0,0,1,61,161.75Z"/><path class="a" d="M218.83,177.3a5.89,5.89,0,1,0,5.89,5.89A5.89,5.89,0,0,0,218.83,177.3Zm0,8.27a2.38,2.38,0,1,1,2.39-2.38A2.38,2.38,0,0,1,218.83,185.57Z"/><path class="a" d="M267,85.87a4.51,4.51,0,1,0,4.51,4.51A4.51,4.51,0,0,0,267,85.87Zm0,6.33a1.83,1.83,0,1,1,1.83-1.82A1.82,1.82,0,0,1,267,92.2Z"/><path class="a" d="M187.61,13.77a4.77,4.77,0,1,0,4.76,4.76A4.76,4.76,0,0,0,187.61,13.77Zm0,6.69a1.93,1.93,0,1,1,1.93-1.93A1.93,1.93,0,0,1,187.61,20.46Z"/><path class="a" d="M35.05,124.81a5,5,0,1,0,5,5A5,5,0,0,0,35.05,124.81Z"/><path class="a" d="M236.23,141.4a3.64,3.64,0,1,0,3.64,3.64A3.64,3.64,0,0,0,236.23,141.4Z"/><path class="a" d="M115.45,15.27a5.33,5.33,0,1,0,5.33,5.32A5.33,5.33,0,0,0,115.45,15.27Z"/><path class="a" d="M144,208.2a3.88,3.88,0,1,0,3.88,3.88A3.89,3.89,0,0,0,144,208.2Z"/><path class="a" d="M219.17,35.81a4.56,4.56,0,1,0,4.56,4.56A4.56,4.56,0,0,0,219.17,35.81Z"/><circle class="a" cx="57.7" cy="73.82" r="2.59"/><path class="a" d="M268.61,63.15A4.43,4.43,0,1,0,273,67.58,4.43,4.43,0,0,0,268.61,63.15Z"/><circle class="a" cx="32.56" cy="89.39" r="2.82"/><path class="a" d="M151.31,5.8,153.09,4a1.58,1.58,0,1,0-2.24-2.23l-1.77,1.77L147.3,1.8A1.58,1.58,0,0,0,145.07,4l1.77,1.77-1.77,1.78a1.58,1.58,0,0,0,2.23,2.23L149.08,8l1.77,1.77a1.58,1.58,0,1,0,2.24-2.23Z"/><path class="a" d="M30.55,59.38l1.77-1.77a1.58,1.58,0,0,0,0-2.24,1.6,1.6,0,0,0-2.24,0l-1.77,1.77-1.77-1.77a1.6,1.6,0,0,0-2.24,0,1.58,1.58,0,0,0,0,2.24l1.77,1.77L24.3,61.15a1.58,1.58,0,0,0,0,2.24,1.6,1.6,0,0,0,2.24,0l1.77-1.78,1.77,1.78a1.6,1.6,0,0,0,2.24,0,1.58,1.58,0,0,0,0-2.24Z"/><path class="a" d="M239.8,167.63l1.5-1.5a1.34,1.34,0,1,0-1.9-1.89l-1.5,1.5-1.5-1.5a1.34,1.34,0,0,0-1.89,0,1.32,1.32,0,0,0,0,1.89l1.5,1.5-1.5,1.5a1.34,1.34,0,0,0,1.89,1.9l1.5-1.51,1.5,1.51a1.34,1.34,0,0,0,1.9-1.9Z"/><path class="b" d="M141.64,172.36c0-1.42-1.6-2.58-3.57-2.58H112.92c-2,0-3.58,1.16-3.58,2.58l-6.08,22.49c0,1.42,1.59,2.57,3.57,2.57h38.84c2,0,3.57-1.15,3.57-2.57Z"/><rect class="c" x="37.13" y="48.34" width="181.29" height="124.94" rx="3.57" ry="3.57"/><rect class="d" x="37.13" y="55.25" width="181.29" height="100.53"/><rect class="c" x="86.18" y="188.2" width="80.57" height="10.73" rx="3.57" ry="3.57"/><polygon class="e" points="216.08 62.38 37.13 62.38 37.13 146.86 161.09 146.86 179.15 146.86 218.42 146.86 218.42 99.26 218.42 77.36 218.42 70.84 218.42 62.38 216.08 62.38"/><ellipse class="f" cx="126.46" cy="165.02" rx="6.71" ry="6.7"/><path class="a" d="M144,100.49H140.1V87a5.42,5.42,0,0,0-4.86-5.23h-13.6a6.62,6.62,0,0,0-4.9,1.74,5,5,0,0,0-1.46,3.38v13.59h-4.1a2.46,2.46,0,0,0-2.46,2.46V125a2.46,2.46,0,0,0,2.46,2.45H144a2.46,2.46,0,0,0,2.47-2.45V103A2.47,2.47,0,0,0,144,100.49Zm-8,0H119.38V86.94c.07-.68.89-1.07,2.26-1.07h13.17c.32.07,1.19.33,1.19,1.23v13.39Z"/><path class="g" d="M119.38,100.49V86.94c.07-.68.89-1.07,2.26-1.07h13.17c.32.07,1.19.33,1.19,1.23v6.73L140.1,87a5.42,5.42,0,0,0-4.86-5.23h-13.6a6.62,6.62,0,0,0-4.9,1.74,5,5,0,0,0-1.46,3.38v13.59h-4.1a2.46,2.46,0,0,0-2.46,2.46V125a2.46,2.46,0,0,0,2.46,2.45h4.57l16.24-27Z"/><path class="h" d="M131.69,110a4.72,4.72,0,1,0-6.62,4.32v6.39a1.9,1.9,0,0,0,3.8,0v-6.39A4.72,4.72,0,0,0,131.69,110Z"/><path class="i" d="M252.73,239.8c0,2.14-1.36,3.87-3,3.87H166.82c-1.68,0-3-1.73-3-3.87V90.24c0-2.14,1.36-3.87,3-3.87h82.87c1.68,0,3,1.73,3,3.87Z"/><path class="e" d="M247.77,216.83a3.35,3.35,0,0,1-3.15,3.52H172.18a3.35,3.35,0,0,1-3.15-3.52V105.76a3.35,3.35,0,0,1,3.15-3.52h72.44a3.35,3.35,0,0,1,3.15,3.52Z"/><path class="j" d="M218.07,231.82a9.5,9.5,0,1,1-9.49-9.49A9.49,9.49,0,0,1,218.07,231.82Z"/><path class="k" d="M216.31,231.81a7.74,7.74,0,1,1-7.74-7.73A7.74,7.74,0,0,1,216.31,231.81Z"/><path class="l" d="M221.67,95.47a1.32,1.32,0,0,1-1.32,1.32H192.12a1.32,1.32,0,0,1-1.32-1.32h0a1.32,1.32,0,0,1,1.32-1.31h28.23a1.32,1.32,0,0,1,1.32,1.31Z"/><path class="l" d="M225.14,96c0,.44-.6.8-1.34.8h0c-.74,0-1.34-.36-1.34-.8V95c0-.44.6-.8,1.34-.8h0c.74,0,1.34.36,1.34.8Z"/><path class="a" d="M223.09,154.34h-3.45V142.42a4.79,4.79,0,0,0-4.29-4.62h-12a5.86,5.86,0,0,0-4.33,1.54,4.4,4.4,0,0,0-1.29,3v12h-3.63a2.18,2.18,0,0,0-2.18,2.18V176a2.18,2.18,0,0,0,2.18,2.17h29a2.18,2.18,0,0,0,2.18-2.17V156.52A2.18,2.18,0,0,0,223.09,154.34Zm-7.08,0H201.32v-12c.06-.59.78-.94,2-.94H215c.28.06,1,.29,1,1.09v11.84Z"/><path class="g" d="M201.32,154.34v-12c.06-.59.78-.94,2-.94H215c.28.06,1,.29,1,1.09v5.95l3.63-6a4.79,4.79,0,0,0-4.29-4.62h-12a5.86,5.86,0,0,0-4.33,1.54,4.4,4.4,0,0,0-1.29,3v12h-3.63a2.18,2.18,0,0,0-2.18,2.18V176a2.18,2.18,0,0,0,2.18,2.17h4.05l14.36-23.86Z"/><path class="h" d="M212.2,162.78a4.17,4.17,0,1,0-5.85,3.82v5.66a1.68,1.68,0,0,0,3.36,0V166.6A4.17,4.17,0,0,0,212.2,162.78Z"/><path class="m" d="M239.6,149.29a13.25,13.25,0,1,1-13.25-13.24A13.25,13.25,0,0,1,239.6,149.29Z"/><path class="n" d="M226.67,143.37a5.79,5.79,0,0,0-4.67,1.9c-.16.17-.3.35-.46.55v-1a.56.56,0,0,0-.58-.56.54.54,0,0,0-.53.57c0,.73,0,1.45,0,2.18a.55.55,0,0,0,.59.58h2.34a.59.59,0,0,0,.29-.07.55.55,0,0,0,.28-.61.56.56,0,0,0-.54-.43h-.94v0l0,0a4.61,4.61,0,0,1,4.62-1.88,4.8,4.8,0,1,1-5.5,5.5c0-.26-.15-.22-.15-.22-.3,0-1,.21-.92.57a5.92,5.92,0,1,0,6.14-7Z"/><path class="o" d="M114.24,150.3s-9.84.46-16.81-6.51c-6.24-6.24-3.54-17.91-3.54-17.91l-12.13-2.4-6.1,15.63,8.7,1.72s-1.94,8.37,2.54,12.84c5,5,12,4.66,12,4.66s1.8,21.29-10.65,41.26c-12.59,20.2-29.53,25.23-29.53,25.23s-6-1.8-13.6-7.56l-6,15.29c10.54,8,19,10.54,19,10.54s23.63-7,41.2-35.21C116.75,180,114.24,150.3,114.24,150.3Z"/><path class="p" d="M58.76,224.82s16.94-5,29.53-25.23c12.45-20,10.65-41.26,10.65-41.26s-7,.33-12-4.66c-4.48-4.47-2.54-12.84-2.54-12.84l-8.7-1.72-30.5,78.15C52.71,223,58.76,224.82,58.76,224.82Z"/><path class="q" d="M29.24,199.59c-12.46-20-10.65-41.26-10.65-41.26s7,.33,12-4.66c4.47-4.47,2.54-12.84,2.54-12.84l25.59-5.05,16.9,3.33,6.1-15.63-23.59-4.65-35.72,7s2.69,11.67-3.55,17.91c-7,7-16.81,6.51-16.81,6.51S-.42,180,17,207.88a91.79,91.79,0,0,0,22.23,24.67l6-15.29A65.52,65.52,0,0,1,29.24,199.59Z"/><path class="r" d="M33.17,140.83s1.93,8.37-2.54,12.84c-5,5-12,4.66-12,4.66s-1.81,21.29,10.65,41.26a65.52,65.52,0,0,0,15.92,17.67l30.5-78.15-16.9-3.33Z"/></svg>