<?xml version="1.0" encoding="utf-8"?>
<!-- Generator: Adobe Illustrator 21.0.2, SVG Export Plug-In . SVG Version: 6.00 Build 0)  -->
<svg version="1.1" id="Layer_1" xmlns="http://www.w3.org/2000/svg" xmlns:xlink="http://www.w3.org/1999/xlink" x="0px" y="0px"
	 viewBox="0 0 182 122" style="enable-background:new 0 0 182 122;" xml:space="preserve">
<style type="text/css">
	.st0{fill:none;}
	.st1{fill:#E6F2FF;}
	.st2{fill:#E24859;}
	.st3{fill:#FFD638;}
	.st4{fill:#64D0DA;}
	.st5{fill:#5CA7E3;}
	.st6{fill:#5CCAE5;}
	.st7{fill:#E1EDF9;}
	.st8{fill:#FFFFFF;}
	.st9{fill:#FFD638;stroke:#FFFFFF;stroke-width:4;stroke-miterlimit:10;}
	.st10{fill:#2B2B2B;}
</style>
<rect x="-587" y="-139" class="st0" width="1336" height="768"/>
<g>
	<g>
		<g>
			<path class="st1" d="M141,109.3H11.4C5.1,109.3,0,104.2,0,96.8v-86C0,5.6,5.1,0.5,11.4,0.5H141c6.3,0,11.4,5.1,11.4,10.3v86
				C152.3,104.2,147.2,109.3,141,109.3z"/>
			<g>
				<circle class="st2" cx="11.6" cy="10.3" r="3.4"/>
				<circle class="st3" cx="21.9" cy="10.3" r="3.4"/>
				<circle class="st4" cx="32.3" cy="10.3" r="3.4"/>
			</g>
			<rect y="19.4" class="st5" width="152.3" height="61.6"/>
			<path class="st6" d="M123.3,109.3H29V95c0-2.5,2-4.6,4.6-4.6h85.1c2.5,0,4.6,2,4.6,4.6V109.3z"/>
		</g>
		<path class="st7" d="M107,39H45.3c-1.2,0-2.2-1-2.2-2.2v0c0-1.2,1-2.2,2.2-2.2H107c1.2,0,2.2,1,2.2,2.2v0
			C109.3,38,108.3,39,107,39z"/>
		<path class="st7" d="M96.4,49.1H55.9c-1.2,0-2.2-1-2.2-2.2v0c0-1.2,1-2.2,2.2-2.2h40.5c1.2,0,2.2,1,2.2,2.2v0
			C98.6,48.1,97.6,49.1,96.4,49.1z"/>
		<circle class="st8" cx="76.2" cy="62.9" r="5.7"/>
	</g>
	<circle class="st9" cx="140.2" cy="80.7" r="38.6"/>
	<g>
		<path class="st10" d="M154.1,98.5h-27.8c-1.2,0-2.2-1-2.2-2.2V75.9c0-1.2,1-2.2,2.2-2.2h27.8c1.2,0,2.2,1,2.2,2.2v20.4
			C156.2,97.5,155.3,98.5,154.1,98.5z"/>
		<path class="st10" d="M140.5,59.4h-0.4c-6.5,0-11.8,5.3-11.8,11.8v8.7h4.4v-8.5c0-4.1,3.3-7.4,7.4-7.4s7.4,3.3,7.4,7.4v8.5h4.9
			v-8.7C152.3,64.7,147,59.4,140.5,59.4z"/>
		<circle class="st3" cx="140.2" cy="84.4" r="3.5"/>
		<path class="st8" d="M128.2,86.8L128.2,86.8c-0.6,0-1.1-0.5-1.1-1.1v-6.4c0-0.6,0.5-1.1,1.1-1.1l0,0c0.6,0,1.1,0.5,1.1,1.1v6.4
			C129.3,86.3,128.8,86.8,128.2,86.8z"/>
		<path class="st8" d="M128.2,91.5L128.2,91.5c-0.6,0-1.1-0.5-1.1-1.1v-0.7c0-0.6,0.5-1.1,1.1-1.1l0,0c0.6,0,1.1,0.5,1.1,1.1v0.7
			C129.3,91,128.8,91.5,128.2,91.5z"/>
		<path class="st3" d="M141.3,91.3H139c-0.4,0-0.8-0.4-0.7-0.8l0.5-4.4h2.8l0.5,4.4C142.1,90.9,141.8,91.3,141.3,91.3z"/>
	</g>
</g>
</svg>
